<svg width="900" height="220" viewBox="0 0 900 220" xmlns="http://www.w3.org/2000/svg">
  <defs>
    <linearGradient id="bgGrad" x1="0" y1="0" x2="0" y2="1">
      <stop offset="0%" stop-color="#0a1128"/>
      <stop offset="100%" stop-color="#050a1a"/>
    </linearGradient>
    <clipPath id="frameClip">
      <rect x="6" y="6" width="888" height="208"/>
    </clipPath>
  </defs>

  <rect width="900" height="220" fill="url(#bgGrad)"/>

  <g clip-path="url(#frameClip)">
    <!-- digital rain, blue 8-bit blocks -->
    <g opacity="0.55">
    <g transform="translate(30,0)">
      <animateTransform attributeName="transform" type="translate"
        values="30 -80; 30 300" dur="4.15s" begin="-0.16s" repeatCount="indefinite"/>
      <rect x="0" y="0" width="4" height="8" fill="#4895ef" opacity="1.0"/><rect x="0" y="12" width="4" height="8" fill="#4895ef" opacity="0.67"/><rect x="0" y="24" width="4" height="8" fill="#4895ef" opacity="0.33"/>
    </g>
    <g transform="translate(108,0)">
      <animateTransform attributeName="transform" type="translate"
        values="108 -80; 108 300" dur="3.04s" begin="-1.89s" repeatCount="indefinite"/>
      <rect x="0" y="0" width="4" height="8" fill="#3a86ff" opacity="1.0"/><rect x="0" y="12" width="4" height="8" fill="#3a86ff" opacity="0.75"/><rect x="0" y="24" width="4" height="8" fill="#3a86ff" opacity="0.5"/><rect x="0" y="36" width="4" height="8" fill="#3a86ff" opacity="0.25"/>
    </g>
    <g transform="translate(134,0)">
      <animateTransform attributeName="transform" type="translate"
        values="134 -80; 134 300" dur="3.83s" begin="-0.63s" repeatCount="indefinite"/>
      <rect x="0" y="0" width="4" height="8" fill="#4895ef" opacity="1.0"/><rect x="0" y="12" width="4" height="8" fill="#4895ef" opacity="0.8"/><rect x="0" y="24" width="4" height="8" fill="#4895ef" opacity="0.6"/><rect x="0" y="36" width="4" height="8" fill="#4895ef" opacity="0.4"/><rect x="0" y="48" width="4" height="8" fill="#4895ef" opacity="0.2"/>
    </g>
    <g transform="translate(160,0)">
      <animateTransform attributeName="transform" type="translate"
        values="160 -80; 160 300" dur="2.39s" begin="-2.49s" repeatCount="indefinite"/>
      <rect x="0" y="0" width="4" height="8" fill="#4cc9f0" opacity="1.0"/><rect x="0" y="12" width="4" height="8" fill="#4cc9f0" opacity="0.75"/><rect x="0" y="24" width="4" height="8" fill="#4cc9f0" opacity="0.5"/><rect x="0" y="36" width="4" height="8" fill="#4cc9f0" opacity="0.25"/>
    </g>
    <g transform="translate(186,0)">
      <animateTransform attributeName="transform" type="translate"
        values="186 -80; 186 300" dur="2.61s" begin="-2.38s" repeatCount="indefinite"/>
      <rect x="0" y="0" width="4" height="8" fill="#5aa9e6" opacity="1.0"/><rect x="0" y="12" width="4" height="8" fill="#5aa9e6" opacity="0.8"/><rect x="0" y="24" width="4" height="8" fill="#5aa9e6" opacity="0.6"/><rect x="0" y="36" width="4" height="8" fill="#5aa9e6" opacity="0.4"/><rect x="0" y="48" width="4" height="8" fill="#5aa9e6" opacity="0.2"/>
    </g>
    <g transform="translate(212,0)">
      <animateTransform attributeName="transform" type="translate"
        values="212 -80; 212 300" dur="3.13s" begin="-3.23s" repeatCount="indefinite"/>
      <rect x="0" y="0" width="4" height="8" fill="#3a86ff" opacity="1.0"/><rect x="0" y="12" width="4" height="8" fill="#3a86ff" opacity="0.75"/><rect x="0" y="24" width="4" height="8" fill="#3a86ff" opacity="0.5"/><rect x="0" y="36" width="4" height="8" fill="#3a86ff" opacity="0.25"/>
    </g>
    <g transform="translate(238,0)">
      <animateTransform attributeName="transform" type="translate"
        values="238 -80; 238 300" dur="2.7s" begin="-0.63s" repeatCount="indefinite"/>
      <rect x="0" y="0" width="4" height="8" fill="#4895ef" opacity="1.0"/><rect x="0" y="12" width="4" height="8" fill="#4895ef" opacity="0.75"/><rect x="0" y="24" width="4" height="8" fill="#4895ef" opacity="0.5"/><rect x="0" y="36" width="4" height="8" fill="#4895ef" opacity="0.25"/>
    </g>
    <g transform="translate(290,0)">
      <animateTransform attributeName="transform" type="translate"
        values="290 -80; 290 300" dur="3.35s" begin="-1.84s" repeatCount="indefinite"/>
      <rect x="0" y="0" width="4" height="8" fill="#3a86ff" opacity="1.0"/><rect x="0" y="12" width="4" height="8" fill="#3a86ff" opacity="0.67"/><rect x="0" y="24" width="4" height="8" fill="#3a86ff" opacity="0.33"/>
    </g>
    <g transform="translate(316,0)">
      <animateTransform attributeName="transform" type="translate"
        values="316 -80; 316 300" dur="3.1s" begin="-2.13s" repeatCount="indefinite"/>
      <rect x="0" y="0" width="4" height="8" fill="#4cc9f0" opacity="1.0"/><rect x="0" y="12" width="4" height="8" fill="#4cc9f0" opacity="0.8"/><rect x="0" y="24" width="4" height="8" fill="#4cc9f0" opacity="0.6"/><rect x="0" y="36" width="4" height="8" fill="#4cc9f0" opacity="0.4"/><rect x="0" y="48" width="4" height="8" fill="#4cc9f0" opacity="0.2"/>
    </g>
    <g transform="translate(368,0)">
      <animateTransform attributeName="transform" type="translate"
        values="368 -80; 368 300" dur="3.22s" begin="-0.58s" repeatCount="indefinite"/>
      <rect x="0" y="0" width="4" height="8" fill="#3a86ff" opacity="1.0"/><rect x="0" y="12" width="4" height="8" fill="#3a86ff" opacity="0.67"/><rect x="0" y="24" width="4" height="8" fill="#3a86ff" opacity="0.33"/>
    </g>
    <g transform="translate(394,0)">
      <animateTransform attributeName="transform" type="translate"
        values="394 -80; 394 300" dur="4.07s" begin="-1.48s" repeatCount="indefinite"/>
      <rect x="0" y="0" width="4" height="8" fill="#4cc9f0" opacity="1.0"/><rect x="0" y="12" width="4" height="8" fill="#4cc9f0" opacity="0.67"/><rect x="0" y="24" width="4" height="8" fill="#4cc9f0" opacity="0.33"/>
    </g>
    <g transform="translate(420,0)">
      <animateTransform attributeName="transform" type="translate"
        values="420 -80; 420 300" dur="3.35s" begin="-3.06s" repeatCount="indefinite"/>
      <rect x="0" y="0" width="4" height="8" fill="#3a86ff" opacity="1.0"/><rect x="0" y="12" width="4" height="8" fill="#3a86ff" opacity="0.8"/><rect x="0" y="24" width="4" height="8" fill="#3a86ff" opacity="0.6"/><rect x="0" y="36" width="4" height="8" fill="#3a86ff" opacity="0.4"/><rect x="0" y="48" width="4" height="8" fill="#3a86ff" opacity="0.2"/>
    </g>
    <g transform="translate(446,0)">
      <animateTransform attributeName="transform" type="translate"
        values="446 -80; 446 300" dur="3.59s" begin="-2.08s" repeatCount="indefinite"/>
      <rect x="0" y="0" width="4" height="8" fill="#5aa9e6" opacity="1.0"/><rect x="0" y="12" width="4" height="8" fill="#5aa9e6" opacity="0.75"/><rect x="0" y="24" width="4" height="8" fill="#5aa9e6" opacity="0.5"/><rect x="0" y="36" width="4" height="8" fill="#5aa9e6" opacity="0.25"/>
    </g>
    <g transform="translate(472,0)">
      <animateTransform attributeName="transform" type="translate"
        values="472 -80; 472 300" dur="3.88s" begin="-3.31s" repeatCount="indefinite"/>
      <rect x="0" y="0" width="4" height="8" fill="#5aa9e6" opacity="1.0"/><rect x="0" y="12" width="4" height="8" fill="#5aa9e6" opacity="0.67"/><rect x="0" y="24" width="4" height="8" fill="#5aa9e6" opacity="0.33"/>
    </g>
    <g transform="translate(498,0)">
      <animateTransform attributeName="transform" type="translate"
        values="498 -80; 498 300" dur="3.53s" begin="-0.21s" repeatCount="indefinite"/>
      <rect x="0" y="0" width="4" height="8" fill="#3a86ff" opacity="1.0"/><rect x="0" y="12" width="4" height="8" fill="#3a86ff" opacity="0.8"/><rect x="0" y="24" width="4" height="8" fill="#3a86ff" opacity="0.6"/><rect x="0" y="36" width="4" height="8" fill="#3a86ff" opacity="0.4"/><rect x="0" y="48" width="4" height="8" fill="#3a86ff" opacity="0.2"/>
    </g>
    <g transform="translate(524,0)">
      <animateTransform attributeName="transform" type="translate"
        values="524 -80; 524 300" dur="3.36s" begin="-2.38s" repeatCount="indefinite"/>
      <rect x="0" y="0" width="4" height="8" fill="#5aa9e6" opacity="1.0"/><rect x="0" y="12" width="4" height="8" fill="#5aa9e6" opacity="0.8"/><rect x="0" y="24" width="4" height="8" fill="#5aa9e6" opacity="0.6"/><rect x="0" y="36" width="4" height="8" fill="#5aa9e6" opacity="0.4"/><rect x="0" y="48" width="4" height="8" fill="#5aa9e6" opacity="0.2"/>
    </g>
    <g transform="translate(576,0)">
      <animateTransform attributeName="transform" type="translate"
        values="576 -80; 576 300" dur="3.63s" begin="-3.1s" repeatCount="indefinite"/>
      <rect x="0" y="0" width="4" height="8" fill="#3a86ff" opacity="1.0"/><rect x="0" y="12" width="4" height="8" fill="#3a86ff" opacity="0.75"/><rect x="0" y="24" width="4" height="8" fill="#3a86ff" opacity="0.5"/><rect x="0" y="36" width="4" height="8" fill="#3a86ff" opacity="0.25"/>
    </g>
    <g transform="translate(602,0)">
      <animateTransform attributeName="transform" type="translate"
        values="602 -80; 602 300" dur="4.08s" begin="-1.24s" repeatCount="indefinite"/>
      <rect x="0" y="0" width="4" height="8" fill="#4cc9f0" opacity="1.0"/><rect x="0" y="12" width="4" height="8" fill="#4cc9f0" opacity="0.67"/><rect x="0" y="24" width="4" height="8" fill="#4cc9f0" opacity="0.33"/>
    </g>
    <g transform="translate(628,0)">
      <animateTransform attributeName="transform" type="translate"
        values="628 -80; 628 300" dur="2.32s" begin="-2.69s" repeatCount="indefinite"/>
      <rect x="0" y="0" width="4" height="8" fill="#4895ef" opacity="1.0"/><rect x="0" y="12" width="4" height="8" fill="#4895ef" opacity="0.75"/><rect x="0" y="24" width="4" height="8" fill="#4895ef" opacity="0.5"/><rect x="0" y="36" width="4" height="8" fill="#4895ef" opacity="0.25"/>
    </g>
    <g transform="translate(654,0)">
      <animateTransform attributeName="transform" type="translate"
        values="654 -80; 654 300" dur="2.7s" begin="-1.37s" repeatCount="indefinite"/>
      <rect x="0" y="0" width="4" height="8" fill="#5aa9e6" opacity="1.0"/><rect x="0" y="12" width="4" height="8" fill="#5aa9e6" opacity="0.8"/><rect x="0" y="24" width="4" height="8" fill="#5aa9e6" opacity="0.6"/><rect x="0" y="36" width="4" height="8" fill="#5aa9e6" opacity="0.4"/><rect x="0" y="48" width="4" height="8" fill="#5aa9e6" opacity="0.2"/>
    </g>
    <g transform="translate(680,0)">
      <animateTransform attributeName="transform" type="translate"
        values="680 -80; 680 300" dur="2.53s" begin="-1.41s" repeatCount="indefinite"/>
      <rect x="0" y="0" width="4" height="8" fill="#3a86ff" opacity="1.0"/><rect x="0" y="12" width="4" height="8" fill="#3a86ff" opacity="0.67"/><rect x="0" y="24" width="4" height="8" fill="#3a86ff" opacity="0.33"/>
    </g>
    <g transform="translate(732,0)">
      <animateTransform attributeName="transform" type="translate"
        values="732 -80; 732 300" dur="3.84s" begin="-3.02s" repeatCount="indefinite"/>
      <rect x="0" y="0" width="4" height="8" fill="#3a86ff" opacity="1.0"/><rect x="0" y="12" width="4" height="8" fill="#3a86ff" opacity="0.67"/><rect x="0" y="24" width="4" height="8" fill="#3a86ff" opacity="0.33"/>
    </g>
    <g transform="translate(758,0)">
      <animateTransform attributeName="transform" type="translate"
        values="758 -80; 758 300" dur="3.03s" begin="-1.26s" repeatCount="indefinite"/>
      <rect x="0" y="0" width="4" height="8" fill="#5aa9e6" opacity="1.0"/><rect x="0" y="12" width="4" height="8" fill="#5aa9e6" opacity="0.8"/><rect x="0" y="24" width="4" height="8" fill="#5aa9e6" opacity="0.6"/><rect x="0" y="36" width="4" height="8" fill="#5aa9e6" opacity="0.4"/><rect x="0" y="48" width="4" height="8" fill="#5aa9e6" opacity="0.2"/>
    </g>
    <g transform="translate(784,0)">
      <animateTransform attributeName="transform" type="translate"
        values="784 -80; 784 300" dur="2.5s" begin="-0.62s" repeatCount="indefinite"/>
      <rect x="0" y="0" width="4" height="8" fill="#4895ef" opacity="1.0"/><rect x="0" y="12" width="4" height="8" fill="#4895ef" opacity="0.67"/><rect x="0" y="24" width="4" height="8" fill="#4895ef" opacity="0.33"/>
    </g>
    <g transform="translate(810,0)">
      <animateTransform attributeName="transform" type="translate"
        values="810 -80; 810 300" dur="2.67s" begin="-1.7s" repeatCount="indefinite"/>
      <rect x="0" y="0" width="4" height="8" fill="#4895ef" opacity="1.0"/><rect x="0" y="12" width="4" height="8" fill="#4895ef" opacity="0.8"/><rect x="0" y="24" width="4" height="8" fill="#4895ef" opacity="0.6"/><rect x="0" y="36" width="4" height="8" fill="#4895ef" opacity="0.4"/><rect x="0" y="48" width="4" height="8" fill="#4895ef" opacity="0.2"/>
    </g>
    <g transform="translate(836,0)">
      <animateTransform attributeName="transform" type="translate"
        values="836 -80; 836 300" dur="2.76s" begin="-0.51s" repeatCount="indefinite"/>
      <rect x="0" y="0" width="4" height="8" fill="#3a86ff" opacity="1.0"/><rect x="0" y="12" width="4" height="8" fill="#3a86ff" opacity="0.75"/><rect x="0" y="24" width="4" height="8" fill="#3a86ff" opacity="0.5"/><rect x="0" y="36" width="4" height="8" fill="#3a86ff" opacity="0.25"/>
    </g>
    </g>

    <!-- darker overlay panel behind text for contrast -->
    <rect x="130" y="48" width="640" height="84" fill="#050a1a" opacity="0.55"/>

    <!-- title -->
    <text x="450" y="80" text-anchor="middle" font-family="'Courier New', monospace" font-weight="bold"
          font-size="34" letter-spacing="6" fill="#4cc9f0">VINICIUS ALVES DA SILVA
      <animate attributeName="fill" values="#4cc9f0;#9fdcf7;#4cc9f0" dur="4s" repeatCount="indefinite"/>
    </text>

    <!-- blinking cursor next to title -->
    <rect x="772" y="57" width="14" height="26" fill="#4cc9f0">
      <animate attributeName="opacity" values="1;1;0;0" keyTimes="0;0.5;0.5;1" dur="1s" repeatCount="indefinite"/>
    </rect>

    <!-- subtitle -->
    <text x="450" y="114" text-anchor="middle" font-family="'Courier New', monospace"
          font-size="16" letter-spacing="5" fill="#8fc9ef">DESENVOLVEDOR BACKEND · PYTHON &amp; DJANGO</text>

    <!-- mini HUD loading meter, top-right -->
    <text x="762" y="24" font-family="'Courier New', monospace" font-size="9" letter-spacing="2" fill="#3a86ff">COMPILING</text>
    <rect x="760" y="28" width="120" height="10" fill="none" stroke="#3a86ff" stroke-width="1.5"/>
    <rect x="762" y="30" width="20" height="6" fill="#4cc9f0">
      <animate attributeName="width" values="0;116;0" dur="3.5s" repeatCount="indefinite"/>
    </rect>

    <!-- glossy glare sweep -->
    <rect x="-200" y="0" width="50" height="220" fill="#ffffff" opacity="0.05" transform="skewX(-20)">
      <animate attributeName="x" values="-200;1100" dur="6s" repeatCount="indefinite"/>
    </rect>
  </g>

  <!-- pixel frame border -->
  <g fill="#4cc9f0">
    <rect x="0" y="0" width="900" height="6"/>
    <rect x="0" y="214" width="900" height="6"/>
    <rect x="0" y="0" width="6" height="220"/>
    <rect x="894" y="0" width="6" height="220"/>
    <rect x="0" y="0" width="18" height="18"/>
    <rect x="882" y="0" width="18" height="18"/>
    <rect x="0" y="202" width="18" height="18"/>
    <rect x="882" y="202" width="18" height="18"/>
  </g>
</svg>
